<?xml version="1.0" standalone="no"?><!DOCTYPE svg PUBLIC "-//W3C//DTD SVG 1.1//EN" "http://www.w3.org/Graphics/SVG/1.1/DTD/svg11.dtd"><svg t="1528726881770" class="icon" style="" viewBox="0 0 1024 1024" version="1.1" xmlns="http://www.w3.org/2000/svg" p-id="615" xmlns:xlink="http://www.w3.org/1999/xlink" width="200" height="200"><defs><style type="text/css"></style></defs><path d="M768 1024c-141.369 0-256-114.631-256-256s114.631-256 256-256 256 114.631 256 256-114.631 256-256 256z m142.222-284.444H796.444V625.778h-56.888v113.778H625.778v56.888h113.778v113.778h56.888V796.444h113.778v-56.888zM113.778 568.889H512c-39.367 47.275-50.972 105.87-56.889 170.667H113.778v113.777H455.11c11.037 69.86 61.497 133.519 133.746 170.667h-475.08C50.917 1024 0 973.084 0 910.222V113.778C0 50.916 50.916 0 113.778 0h625.778c62.862 0 113.777 50.916 113.777 113.778V455.11H113.778V568.89z m625.778-284.445V170.667H113.778v113.777h625.778z" p-id="616"></path></svg>