<?xml version="1.0" standalone="no"?><!DOCTYPE svg PUBLIC "-//W3C//DTD SVG 1.1//EN" "http://www.w3.org/Graphics/SVG/1.1/DTD/svg11.dtd"><svg t="1528266780000" class="icon" style="" viewBox="0 0 1024 1024" version="1.1" xmlns="http://www.w3.org/2000/svg" p-id="1218" xmlns:xlink="http://www.w3.org/1999/xlink" width="200" height="200"><defs><style type="text/css"></style></defs><path d="M131.2064 714.4v62.5088c0 37.76 30.16746667 68.34133333 66.7808 68.34133333h128.3872v-26.67733333H213.3888v-0.68266667c-30.82666667 0-55.86986667-25.36-55.86986666-56.60266666V714.4h-26.31253334z m85.2576-144.096v87.4688l143.91146667-145.77813333-143.91146667-145.80266667v87.48053333l28.77866667 29.1552H14.99946667v58.32533334h230.24106667l-28.77866667 29.152zM964.768 400.64V224.56533333c0-82.81813333-67.14773333-149.96373333-149.9648-149.96373333H164.9632c-82.816 0-149.96266667 67.14666667-149.96266666 149.96266667v174.9568h49.98613333v-149.96266667c0-82.816 42.15253333-124.9696 124.9696-124.9696h599.8528c82.81706667 0 124.96853333 42.15253333 124.96853333 124.96853333v148.5248H709.75146667c-37.88053333 0-68.58666667 30.5952-68.58666667 68.34133334v115.86453333c0 37.74826667 30.70613333 68.3552 68.58666667 68.3552h205.0272V774.44266667c0 82.79146667-42.15146667 124.96746667-124.96853333 124.96746666H189.95733334c-82.816 0-124.9696-42.176-124.9696-124.96746666V624.47786667H15.00053334v174.95573333c0 82.79466667 67.14666667 149.96373333 149.96266666 149.96373333h649.84c82.816 0 149.9648-67.168 149.9648-149.96266666V648.08533333c28.8448-8.0768 49.9872-34.46826667 49.9872-65.79733333V466.42453333c-0.00106667-31.328-21.14346667-57.712-49.9872-65.7856z m12.10346667 154.96c0 29.936-24.1632 54.02666667-54.208 54.02666667H733.9136c-30.0448 0-54.20906667-24.09066667-54.20906666-54.02666667v-68.34346667c0-29.93706667 24.16426667-54.016 54.20906666-54.016h188.74773334c30.04586667 0 54.208 24.08 54.208 54.016v68.34346667z m-219.45066667-70.944c-9.12746667 0-18.9408 3.90613333-25.48266666 10.41066667-7.1744 6.50453333-10.4448 15.62133333-10.4448 25.38453333 0 9.11786667 3.93066667 18.88 10.4448 25.38666667 6.54186667 6.5024 16.35413333 10.40746667 25.48266666 10.40746666s18.94186667-3.904 25.48266667-10.40853333c6.51733333-6.50666667 10.44693333-16.26666667 10.44693333-25.3856 0-9.11573333-3.93173333-18.88-10.448-25.3856-6.5408-6.50346667-16.352-10.4096-25.4816-10.4096z" p-id="1219"></path></svg>