<?xml version="1.0" standalone="no"?><!DOCTYPE svg PUBLIC "-//W3C//DTD SVG 1.1//EN" "http://www.w3.org/Graphics/SVG/1.1/DTD/svg11.dtd"><svg t="1528253400516" class="icon" style="" viewBox="0 0 1024 1024" version="1.1" xmlns="http://www.w3.org/2000/svg" p-id="1068" xmlns:xlink="http://www.w3.org/1999/xlink" width="200" height="200"><defs><style type="text/css"></style></defs><path d="M511.54147555 1018.93461333c-280.31431111 0-507.5456-227.22901333-507.5456-507.54332444 0-280.31658667 227.23128889-507.5456 507.5456-507.5456 280.31431111 0 507.54332445 227.23015111 507.54332445 507.5456 0 280.31317333-227.22787555 507.54332445-507.54332445 507.54332444z m0-950.28565333c-244.47886222 0-442.73891555 198.21226667-442.73891555 442.74232889 0 244.55395555 198.26005333 442.76394667 442.73891555 442.76394666 244.52664889 0 442.74005333-198.20999111 442.74005334-442.76394666 0-244.5312-198.21226667-442.74232889-442.74005334-442.74232889z m183.61230223 604.71864889H543.93400889v108.00241778c0 11.91936-9.66656 21.58364445-21.56430222 21.58364444H500.71324445c-11.89660445 0-21.56088889-9.66428445-21.5608889-21.58364444v-108.00241778H327.97809778c-11.94666667 0-21.61208889-9.66428445-21.61208889-21.58705778v-21.58364444c0-11.94666667 9.66542222-21.61208889 21.61208889-21.61208889h151.17312v-108.00241778H327.97809778c-11.94666667 0-21.61208889-9.66428445-21.61208889-21.58364445v-21.56088888c0-11.99672889 9.66542222-21.66215111 21.61208889-21.66215112H375.808l-64.77937778-109.43829333c-4.66147555-7.88024889 0.09557333-19.13173333 10.60408889-25.08003555l19.03388444-10.65642667c10.53354667-5.97333333 22.90005333-4.33720889 27.50691556 3.54304l83.81553778 141.68177778H571.09617778l83.7632-141.68177778c4.70698667-7.88024889 17.02570667-9.51637333 27.55925333-3.54304l19.03047111 10.65642667c10.50851555 5.94830222 15.26670222 17.19978667 10.55971556 25.08003555l-64.73500445 109.43829333h47.88110222c11.89546667 0 21.56088889 9.66542222 21.5608889 21.66215112v21.56088888c0 11.91822222-9.66542222 21.58364445-21.5608889 21.58364445H543.93400889v108.00241778h151.22090666c11.89546667 0 21.56088889 9.66542222 21.5608889 21.61208889v21.58364444c0 11.92277333-9.66656 21.58705778-21.56202667 21.58705778z" p-id="1069"></path></svg>