<?xml version="1.0" standalone="no"?><!DOCTYPE svg PUBLIC "-//W3C//DTD SVG 1.1//EN" "http://www.w3.org/Graphics/SVG/1.1/DTD/svg11.dtd"><svg t="1528253407448" class="icon" style="" viewBox="0 0 1024 1024" version="1.1" xmlns="http://www.w3.org/2000/svg" p-id="1316" xmlns:xlink="http://www.w3.org/1999/xlink" width="200" height="200"><defs><style type="text/css"></style></defs><path d="M272.048 727.575c-21.43 0-38.834 17.48-38.834 39.048 0 21.538 17.405 39.025 38.834 39.025h142.674a345.047 345.047 0 0 1-3.978-52.34c0-8.66 0.326-17.236 0.957-25.733H272.048z m258.598-234.297H272.048c-21.43 0-38.834 17.486-38.834 39.049 0 21.565 17.405 39.047 38.834 39.047h191.018a342.056 342.056 0 0 1 67.58-78.096z m235.738-375.336h38.838c42.846 0 77.728 35.027 77.728 78.11v243.65c28.038 12.03 54.125 27.75 77.679 46.546V196.046c0-86.263-69.588-156.193-155.407-156.193h-38.838c-21.488 0-38.87 17.491-38.87 39.04s17.383 39.049 38.87 39.049z m-385.454 0h194.24c32.23 0 58.284-26.23 58.284-58.575 0-32.332-26.11-58.562-58.283-58.562H380.93c-32.2 0-58.32 26.23-58.32 58.562 0 32.338 26.119 58.575 58.32 58.575z m74.954 805.372H155.507c-42.878 0-77.708-35.027-77.708-78.102V196.046c0-43.076 34.83-78.103 77.708-78.103h38.868c21.428 0 38.839-17.5 38.839-39.049 0-21.548-17.41-39.048-38.84-39.048h-38.867C69.66 39.846 0.069 109.783 0.069 196.046v649.157c0 86.273 69.59 156.2 155.438 156.2h361.859a341.96 341.96 0 0 1-61.482-78.089zM272.048 337.702h416.598c21.459 0 38.869-17.483 38.869-39.04 0-21.548-17.411-39.047-38.869-39.047H272.048c-21.43 0-38.834 17.498-38.834 39.047 0 21.557 17.405 39.04 38.834 39.04z m477.845 145.244c-148.572 0-269.013 121.046-269.013 270.36 0 149.313 120.441 270.355 269.013 270.355 148.571 0 269.013-121.042 269.013-270.355 0-149.314-120.442-270.36-269.013-270.36z m176.292 253.32c0 7.654-6.503 14.023-14.31 14.023v0.008H772.66v58.668h139.217c7.807 0 14.31 6.374 14.31 14.025v25.508c0 7.646-6.503 14.031-14.31 14.031H771.361v53.56c0 7.658-6.505 14.03-14.309 14.03h-26.025c-7.804 0-14.307-6.372-14.307-14.03v-53.56H587.913c-7.804 0-14.306-6.385-14.306-14.03V822.99c0-7.652 6.502-14.025 14.306-14.025h128.808v-58.668H587.913c-7.804 0-14.306-6.378-14.306-14.031V710.76c0-7.65 6.502-14.031 14.306-14.031h87.171l-48.265-78.061c-4.861-8.525-5.082-25.072 9.281-33.334 18.327-10.684 35.203 2.467 35.203 2.467L742.74 696.73h3.905l67.971-108.93c6.952-11.685 24.79-15.925 40.224-4.93 18.808 14.14 7.548 32.04 7.548 32.04l-49.391 81.818h98.878c7.807 0 14.31 6.378 14.31 14.03v25.507z" p-id="1317"></path></svg>