<?xml version="1.0" standalone="no"?><!DOCTYPE svg PUBLIC "-//W3C//DTD SVG 1.1//EN" "http://www.w3.org/Graphics/SVG/1.1/DTD/svg11.dtd"><svg t="1524492407076" class="icon" style="" viewBox="0 0 1024 1024" version="1.1" xmlns="http://www.w3.org/2000/svg" p-id="1359" xmlns:xlink="http://www.w3.org/1999/xlink" width="128" height="128"><defs><style type="text/css"></style></defs><path d="M125.312 541.632V216.704c0-46.848 30.656-83.52 76.992-90.24a227.84 227.84 0 0 1 46.72-0.512c14.72 1.024 25.472 15.36 24.768 30.4a29.44 29.44 0 0 1-28.032 28.288c-9.856 0.32-19.712 0-29.568 0.064-19.008 0.256-31.488 12.736-31.488 31.936v649.92c0 19.52 12.544 32.064 32 32.064h590.144c20.032 0 32.256-12.416 32.32-33.088V686.72l0.064-467.392a35.712 35.712 0 0 0-6.208-22.72 29.248 29.248 0 0 0-23.424-11.776c-9.792-0.192-19.712 0-29.568-0.064a29.888 29.888 0 0 1-30.336-29.312 29.44 29.44 0 0 1 29.632-29.888c17.024 0.192 34.432-0.64 50.816 2.752 39.168 8.064 66.944 43.264 68.352 83.136l0.064 6.784v646.848c0 38.976-17.472 67.648-52.608 84.928a83.2 83.2 0 0 1-37.056 8H215.104a88.96 88.96 0 0 1-89.792-90.176V541.632z m0 0" p-id="1360"></path><path d="M512.128 244.16H396.16c-37.632 0-62.528-25.024-62.656-62.592 0-18.112-0.064-36.16 0.064-54.336 0.192-35.904 25.408-61.248 61.312-61.248h234.304c35.52 0 61.056 25.6 61.12 60.992 0.064 19.072 0.128 38.208 0 57.344a58.688 58.688 0 0 1-58.624 59.712c-39.808 0.448-79.68 0.064-119.552 0.128z m118.528-118.336H393.408v58.624h237.184v-58.624h0.064zM511.424 601.28H336.96a32.448 32.448 0 0 1-22.848-7.36 28.544 28.544 0 0 1-9.024-30.72 28.032 28.032 0 0 1 24-21.056 48.384 48.384 0 0 1 6.784-0.512h351.936c20.032 0 33.344 13.504 32.128 32.256a29.44 29.44 0 0 1-23.68 26.496 64 64 0 0 1-11.072 0.768c-57.92 0.128-115.84 0.128-173.76 0.128z m0.064 148.48H334.016a28.16 28.16 0 0 1-27.2-16.832 28.224 28.224 0 0 1 3.52-31.232 29.056 29.056 0 0 1 24.192-11.264h353.856c18.496 0 31.552 12.352 31.552 29.632a29.056 29.056 0 0 1-29.056 29.632c-22.4 0.192-44.8 0.064-67.2 0.064H511.488z m-58.816-356.672c39.488 0 78.912-0.128 118.4 0.064a29.44 29.44 0 0 1 29.248 36.672 29.76 29.76 0 0 1-29.504 22.592h-78.848c-52.608 0-105.216 0.064-157.824-0.064a29.696 29.696 0 1 1 0.128-59.264h118.4z m0 0" p-id="1361"></path></svg>