<?xml version="1.0" standalone="no"?><!DOCTYPE svg PUBLIC "-//W3C//DTD SVG 1.1//EN" "http://www.w3.org/Graphics/SVG/1.1/DTD/svg11.dtd"><svg t="1528266776206" class="icon" style="" viewBox="0 0 1024 1024" version="1.1" xmlns="http://www.w3.org/2000/svg" p-id="1093" xmlns:xlink="http://www.w3.org/1999/xlink" width="200" height="200"><defs><style type="text/css"></style></defs><path d="M995.85956978 557.48035571c-13.31303158 14.97651326-16.63999493 28.28825031-53.24953727 0L513.28677104 88.21929402 80.63525168 555.8155795c-33.28128443 29.95302653-43.26476357 9.98477369-53.24953728 0-9.98477369-9.98477369-9.98477369-26.62476863 0-36.60954233L480.00548661 29.97801718c8.31999747-8.31999747 21.63302907-23.29651074 31.61650822-16.63999494 9.98477369-6.65651579 23.29651074 8.31999747 33.28128442 16.63999494L995.85956978 520.87081338c9.98347915 9.98477369 9.98347915 26.62476863 0 36.60954233M353.53815925 427.68477045c11.64825537-11.64825537 28.28825031-11.64825537 39.93650568 0l119.81081157 119.81081157 119.81081159-119.81081157c11.64825537-11.64825537 28.28825031-11.64825537 39.93650567 0s11.64825537 28.28825031 0 39.93650567l-119.81081157 119.81081158h99.84255873c14.97651326 0 28.28825031 11.64825537 28.28825031 28.28825031 0 14.97651326-11.64825537 28.28825031-28.28825031 28.28825031h-111.4908141v83.20256379h111.4908141c14.97651326 0 28.28825031 11.64825537 28.28825031 28.28825032 0 14.97651326-11.64825537 28.28825031-28.28825031 28.28825031h-111.4908141v106.49907453c0 14.97651326-11.64825537 28.28825031-28.28825032 28.28825031-14.97651326 0-28.28825031-11.64825537-28.28825031-28.28825031v-111.48822503h-111.4908141c-14.97651326 0-28.28825031-11.64825537-28.28825031-28.28825032 0-14.97651326 11.64825537-28.28825031 28.28825031-28.2882503h111.4908141V639.01943783h-111.4908141c-14.97651326 0-28.28825031-11.64825537-28.28825031-28.28825031 0-14.97651326 11.64825537-28.28825031 28.28825031-28.28825032h98.17907706l-118.1473299-118.1473299c-11.64825537-8.32258655-11.64825537-26.62606317 0-36.61083685M125.56349693 951.85885108h29.95302654c-3.3282579-8.31999747-4.99173957-16.63999493-4.99173959-26.62476863V537.51210288c0-14.97651326 11.64825537-26.62476863 26.62476863-26.62476864s39.93650569-3.3282579 43.26476358 26.62476864v372.7454663c0 21.63302907 14.97651326 24.96128695 34.9447661 26.62476863h517.51756484c19.96825283 0 34.9447661-3.3282579 34.94476611-26.62476863V537.51210288c0-29.95302653 28.28825031-26.62476863 43.26476357-26.62476864 14.97651326 0 26.62476863 11.64825537 26.62476862 26.62476864v389.38546124c0 8.31999747-1.66348169 18.30477117-4.99173956 26.62476864h29.95302653c14.97651326 0 26.62476863 11.64825537 26.62476863 26.62476862s-11.64825537 26.62476863-26.62476863 26.62476864H125.56349693c-14.97651326 0-26.62476863-11.64825537-26.62476863-26.62476864 0-16.63999493 11.6495499-28.28825031 26.62476863-28.2882503m0 0z" p-id="1094"></path><path d="M491.65374198 26.64975928c3.3282579 0 6.65651579 1.66477621 9.9847737 3.3282579s3.3282579 4.99173957 3.32825789 8.31999748c0 3.3282579-1.66348169 6.65651579-3.32825789 8.31999746s-6.65651579 3.3282579-9.9847737 3.3282579v-23.29651074m0 0z" p-id="1095"></path></svg>