<?xml version="1.0" standalone="no"?><!DOCTYPE svg PUBLIC "-//W3C//DTD SVG 1.1//EN" "http://www.w3.org/Graphics/SVG/1.1/DTD/svg11.dtd"><svg t="1532251156321" class="icon" style="" viewBox="0 0 1024 1024" version="1.1" xmlns="http://www.w3.org/2000/svg" p-id="1057" xmlns:xlink="http://www.w3.org/1999/xlink" width="200" height="200"><defs><style type="text/css"></style></defs><path d="M822.272 650.752c16.896-18.944 25.6-40.448 25.6-64.512 0.512-25.088-8.192-47.104-25.6-66.048L445.44 144.384c-14.848-14.848-35.84-28.16-61.44-39.424-25.088-10.752-49.152-15.872-71.168-15.872H93.696c-24.064 0-47.104 9.728-65.024 27.136-17.92 17.92-28.16 40.96-28.16 65.024v218.624c0 23.04 5.632 47.616 15.872 71.168 11.776 27.648 24.064 47.104 39.936 61.44l375.808 375.808c17.92 17.92 39.936 26.624 65.024 26.624 24.576 0 47.104-8.704 65.536-26.112l258.56-258.56h1.024z m-61.44-44.544l-240.128 235.52c-8.704 7.68-17.408 10.752-28.672 10.752s-19.968-3.072-27.136-10.752L113.664 497.152l-0.512-0.512c-9.728-8.704-17.92-22.016-26.112-40.96-7.168-15.872-10.752-32.256-10.752-46.592V208.896c0-10.24 3.584-18.944 12.288-26.624s16.896-11.776 27.648-11.776h204.288c14.848 0 30.208 3.584 48.128 10.752 18.432 7.68 32.768 16.896 42.496 26.112l350.72 343.04c7.68 8.192 11.264 16.896 11.264 28.16-1.024 10.752-5.12 19.968-12.288 27.648z" p-id="1058"></path><path d="M241.664 236.032c-13.312-12.8-29.184-18.944-47.616-18.944s-34.304 6.144-47.616 18.944c-12.8 12.8-18.944 28.672-18.944 47.616s6.144 34.304 18.944 47.616c12.8 12.8 28.672 18.944 47.616 18.944s34.304-6.144 47.616-18.944 19.968-28.672 18.944-47.616c0-18.432-6.144-34.304-18.944-47.616z m763.904 302.08l-376.32-375.296c-12.8-12.8-31.232-24.576-53.76-34.304-23.04-9.728-43.008-13.824-60.928-13.824l-97.28-7.168c19.968 1.536 25.088 9.216 44.544 19.968 22.016 12.288 36.352 20.992 49.664 35.328l375.296 375.808c12.8 13.824 18.944 29.696 18.944 48.64s-6.144 34.304-18.944 47.616L640 881.152c10.752 10.752 19.968 17.92 27.648 23.552 7.68 5.632 17.92 7.168 30.72 7.168 17.92 0 34.304-6.144 48.64-18.944l258.048-258.56c12.8-12.8 18.944-28.672 18.944-47.616s-6.144-35.328-18.432-48.64z" p-id="1059"></path></svg>