<?xml version="1.0" standalone="no"?><!DOCTYPE svg PUBLIC "-//W3C//DTD SVG 1.1//EN" "http://www.w3.org/Graphics/SVG/1.1/DTD/svg11.dtd"><svg t="1528116639966" class="icon" style="" viewBox="0 0 1024 1024" version="1.1" xmlns="http://www.w3.org/2000/svg" p-id="1032" xmlns:xlink="http://www.w3.org/1999/xlink" width="200" height="200"><defs><style type="text/css"></style></defs><path d="M960.096 399.695C877.006 306.678 706.219 212.74 512 212.74c-273.728 0-504.684 187.568-504.684 305.45 0 115.017 235.867 305.348 504.684 305.348 268.714 0 504.581-190.331 504.684-305.45 0-35.918-19.545-76.85-56.588-118.394zM512 747.61c-245.997 0-428.654-175.8-428.654-229.522 0-66.514 185.522-229.42 428.654-229.42 170.786 0 319.572 81.146 391.304 161.576 27.526 30.8 37.35 55.257 37.35 67.844 0 53.824-182.657 229.522-428.654 229.522z" p-id="1033"></path><path d="M512 367.768c-82.886 0-150.423 67.537-150.423 150.423S429.012 668.614 512 668.614s150.423-67.537 150.423-150.423S594.886 367.768 512 367.768z m0 224.816c-41.034 0-74.495-33.462-74.495-74.495 0-41.034 33.359-74.496 74.495-74.496 41.034 0 74.495 33.462 74.495 74.496S553.034 592.584 512 592.584z" p-id="1034"></path></svg>