<?xml version="1.0" standalone="no"?><!DOCTYPE svg PUBLIC "-//W3C//DTD SVG 1.1//EN" "http://www.w3.org/Graphics/SVG/1.1/DTD/svg11.dtd"><svg t="1528253404268" class="icon" style="" viewBox="0 0 1035 1024" version="1.1" xmlns="http://www.w3.org/2000/svg" p-id="1192" xmlns:xlink="http://www.w3.org/1999/xlink" width="202.1484375" height="200"><defs><style type="text/css"></style></defs><path d="M1029.178 253.611c0 33.294-3.4 61.388-9.898 88.983-22.595 95.88-63.287 183.564-120.176 263.948-60.488 85.483-133.374 159.569-211.659 228.255-66.487 58.289-139.172 107.28-221.256 141.472-48.39 20.196-97.781 37.193-149.871 44.792-18.096 2.6-34.993-9.799-37.893-27.295-3.199-18.896 8.099-35.893 26.595-39.692 8.499-1.8 17.197-3 25.695-4.9 87.083-20.395 166.867-57.188 239.653-109.078 87.183-62.188 162.468-137.073 231.355-218.557 59.988-71.086 106.579-150.17 135.673-238.853 14.597-44.592 25.695-89.783 23.296-137.173-1.8-35.093-12.398-67.087-34.993-94.482-23.896-28.894-53.39-51.09-85.484-69.986-7.798-4.6-16.596-7.999-25.295-10.698-12.897-4-21.995-0.8-29.194 10.698-6.699 10.798-12.898 21.996-17.497 33.793-26.694 68.687-52.79 137.673-79.284 206.36-2 5.199-1.8 8.798 1.9 13.197 16.096 19.396 32.293 38.793 47.69 58.789 14.897 19.296 23.696 41.392 19.396 65.987-2.7 15.597-7.198 31.594-14.497 45.39-52.09 98.681-128.075 174.667-224.656 230.056-16.996 9.798-35.093 17.296-54.789 19.896-27.595 3.5-50.99-6.499-71.986-23.196-18.496-14.697-36.593-29.794-54.79-44.79-2.999-2.5-5.698-3.9-10.097-2.2-69.886 26.894-139.873 53.49-209.659 80.484-11.098 4.299-21.696 10.298-31.894 16.497-12.197 7.398-15.997 16.696-11.398 30.094 4.1 11.697 8.899 23.595 15.797 33.693 12.998 18.996 27.395 37.193 41.892 55.09 12.898 15.996 12.498 36.392-2.2 49.39-14.297 12.697-35.692 11.797-48.49-3.9-17.297-21.096-34.293-42.691-49.59-65.287-8.998-13.297-15.897-28.494-21.096-43.691-16.297-47.59-0.8-89.383 42.092-115.578 12.797-7.798 26.395-14.697 40.392-20.196 70.886-27.594 142.072-54.389 213.058-81.784 24.295-9.298 46.69-6.498 67.387 9.099 10.898 8.198 21.296 17.096 31.994 25.595 11.997 9.498 23.995 19.096 36.092 28.494 6.1 4.7 12.998 5.499 20.097 2.7 8.498-3.4 17.296-6.4 25.195-10.998 50.49-29.095 95.28-65.088 132.973-109.679 23.496-27.794 45.392-56.489 62.488-88.882 10.398-19.697 9.398-35.793-5.999-52.49-15.497-16.697-29.494-34.993-43.591-52.99-16.497-21.096-18.796-44.191-9.098-69.286 26.894-69.387 52.89-139.073 80.084-208.36 6.999-17.796 16.097-35.192 26.595-51.29C745.834 17.158 768.629 3.16 797.524 0.462c20.196-1.9 39.292 3.1 57.688 11.197 32.294 14.198 59.889 35.693 86.583 58.19 58.289 49.49 87.983 112.077 87.383 183.763z" p-id="1193"></path></svg>