<?xml version="1.0" standalone="no"?><!DOCTYPE svg PUBLIC "-//W3C//DTD SVG 1.1//EN" "http://www.w3.org/Graphics/SVG/1.1/DTD/svg11.dtd"><svg t="1524495719526" class="icon" style="" viewBox="0 0 1024 1024" version="1.1" xmlns="http://www.w3.org/2000/svg" p-id="807" xmlns:xlink="http://www.w3.org/1999/xlink" width="128" height="128"><defs><style type="text/css"></style></defs><path d="M510.58739984 7.03203438c-278.88980187 0-504.96796562 226.08506795-504.96796563 504.96796562S231.70312133 1016.96796562 510.58739984 1016.96796562 1015.55536545 790.88289767 1015.55536545 512 789.47720172 7.03203438 510.58739984 7.03203438z m-42.09907501 252.4839828c0-23.23817021 18.8236221-42.08250492 42.08112408-42.08250491 23.26026366 0 42.07698157 18.84433471 42.07698156 42.08250491v299.2295872c0 23.23678938-18.8167179 42.08112409-42.07698156 42.08112409-23.25750198 0-42.08112409-18.84433471-42.08112408-42.08112409V259.51601718z m42.09907501 504.96658479c-32.67621723 0-59.16488675-26.4817653-59.16488674-59.15798254s26.4886695-59.16488675 59.16488674-59.16488675 59.16488675 26.4886695 59.16488674 59.16488675c0 32.67069387-26.4886695 59.15798254-59.16488674 59.15798254z m0 0" p-id="808"></path></svg>